<svg width="26" height="26" viewBox="0 0 26 26" fill="none" xmlns="http://www.w3.org/2000/svg">
<path d="M16.5293 24.3242H10.2483C4.56392 24.3242 2.13525 21.8955 2.13525 16.2111V9.9301C2.13525 4.24576 4.56392 1.81709 10.2483 1.81709H16.5293C22.2136 1.81709 24.6423 4.24576 24.6423 9.9301V16.2111C24.6423 21.8955 22.2136 24.3242 16.5293 24.3242ZM10.2483 3.38735C5.42233 3.38735 3.70551 5.10417 3.70551 9.9301V16.2111C3.70551 21.0371 5.42233 22.7539 10.2483 22.7539H16.5293C21.3552 22.7539 23.0721 21.0371 23.0721 16.2111V9.9301C23.0721 5.10417 21.3552 3.38735 16.5293 3.38735H10.2483Z" fill="#9197B3"/>
<path d="M13.3894 14.2009C13.2533 14.2009 13.1172 14.1695 12.9916 14.0962L7.44333 10.8929C7.06646 10.673 6.94082 10.1915 7.16066 9.8251C7.38049 9.44824 7.86206 9.32262 8.22846 9.54245L13.3789 12.5259L18.4979 9.56339C18.8748 9.34355 19.3564 9.47964 19.5657 9.84604C19.7751 10.2124 19.6495 10.7044 19.2831 10.9138L13.7767 14.0962C13.6615 14.159 13.5255 14.2009 13.3894 14.2009Z" fill="#9197B3"/>
<path d="M13.3886 19.8961C12.9594 19.8961 12.6035 19.5402 12.6035 19.111V13.4162C12.6035 12.987 12.9594 12.6311 13.3886 12.6311C13.8179 12.6311 14.1738 12.987 14.1738 13.4162V19.111C14.1738 19.5402 13.8179 19.8961 13.3886 19.8961Z" fill="#9197B3"/>
<path d="M13.3889 20.1366C12.7817 20.1366 12.1851 20.0005 11.7036 19.7388L8.35362 17.8754C7.34866 17.3206 6.57397 15.9911 6.57397 14.8396V11.2908C6.57397 10.1497 7.35913 8.82025 8.35362 8.25496L11.7036 6.39158C12.6667 5.85769 14.1112 5.85769 15.0743 6.39158L18.4242 8.25496C19.4291 8.80978 20.2039 10.1393 20.2039 11.2908V14.8396C20.2039 15.9806 19.4187 17.3101 18.4242 17.8754L15.0743 19.7388C14.5927 20.011 13.996 20.1366 13.3889 20.1366ZM13.3889 7.57451C13.0434 7.57451 12.7084 7.63732 12.4677 7.77341L9.11783 9.63679C8.60488 9.91943 8.14423 10.715 8.14423 11.2908V14.8396C8.14423 15.4258 8.60488 16.2109 9.11783 16.4936L12.4677 18.357C12.9492 18.6291 13.8285 18.6291 14.3101 18.357L17.66 16.4936C18.1729 16.2109 18.6336 15.4153 18.6336 14.8396V11.2908C18.6336 10.7046 18.1729 9.91943 17.66 9.63679L14.3101 7.77341C14.0693 7.63732 13.7343 7.57451 13.3889 7.57451Z" fill="#9197B3"/>
</svg>
