<svg width="26" height="26" viewBox="0 0 26 26" fill="none" xmlns="http://www.w3.org/2000/svg">
<path d="M16.2183 24.3305H9.9373C8.55547 24.3305 7.40394 24.1944 6.43038 23.9013C6.07446 23.7966 5.84415 23.4512 5.86509 23.0848C6.1268 19.9547 9.29872 17.4946 13.0778 17.4946C16.8569 17.4946 20.0183 19.9443 20.2905 23.0848C20.3219 23.4617 20.0916 23.7966 19.7252 23.9013C18.7517 24.1944 17.6001 24.3305 16.2183 24.3305ZM7.5505 22.5614C8.24141 22.6975 9.02654 22.7603 9.9373 22.7603H16.2183C17.1291 22.7603 17.9142 22.6975 18.6051 22.5614C18.0503 20.5514 15.7577 19.0648 13.0778 19.0648C10.3979 19.0648 8.10533 20.5514 7.5505 22.5614Z" fill="white"/>
<path d="M16.2178 2.60882H9.93677C4.70257 2.60882 2.60889 4.7025 2.60889 9.9367V16.2177C2.60889 20.1748 3.80228 22.3418 6.64969 23.1478C6.87999 20.426 9.67506 18.28 13.0773 18.28C16.4795 18.28 19.2746 20.426 19.5049 23.1478C22.3523 22.3418 23.5457 20.1748 23.5457 16.2177V9.9367C23.5457 4.7025 21.452 2.60882 16.2178 2.60882ZM13.0773 15.3489C11.0045 15.3489 9.3296 13.6634 9.3296 11.5907C9.3296 9.51798 11.0045 7.84302 13.0773 7.84302C15.15 7.84302 16.825 9.51798 16.825 11.5907C16.825 13.6634 15.15 15.3489 13.0773 15.3489Z" stroke="white" stroke-width="1.5" stroke-linecap="round" stroke-linejoin="round"/>
<path d="M13.0772 16.134C10.5753 16.134 8.54443 14.0927 8.54443 11.5907C8.54443 9.08878 10.5753 7.05789 13.0772 7.05789C15.5792 7.05789 17.61 9.08878 17.61 11.5907C17.61 14.0927 15.5792 16.134 13.0772 16.134ZM13.0772 8.62815C11.4442 8.62815 10.1147 9.95766 10.1147 11.5907C10.1147 13.2342 11.4442 14.5637 13.0772 14.5637C14.7103 14.5637 16.0398 13.2342 16.0398 11.5907C16.0398 9.95766 14.7103 8.62815 13.0772 8.62815Z" fill="white"/>
</svg>
